PathFileType	4	(X/Y/Z)	../output/dynamic_cam2_scaled.trc
DataRate	CameraRate	NumFrames	NumMarkers	Units	OrigDataRate	OrigDataStartFrame	OrigNumFrames
60.0	60.0	142	3	m	60.0	157	784
Frame#	Time	r_acromion			r_humerus_epicondyle			r_radius_styloid		
		X1	Y1	Z1	X2	Y2	Z2	X3	Y3	Z3	

157	2.60000	0.00115	0.83777	0.17056	0.21594	0.71724	0.12768	0.25221	0.96343	0.32439
158	2.61667	0.00122	0.83764	0.17050	0.21321	0.71802	0.11348	0.25030	0.97337	0.29799
159	2.63333	0.00124	0.83754	0.16976	0.21692	0.71559	0.13643	0.25195	0.95842	0.33750
160	2.65000	0.00132	0.83748	0.17107	0.21789	0.71305	0.16045	0.25029	0.94561	0.37372
161	2.66667	0.00132	0.83741	0.17041	0.21725	0.71208	0.15746	0.24961	0.94681	0.36835
162	2.68333	0.00119	0.83736	0.17023	0.21741	0.71197	0.16540	0.23856	0.93765	0.38731
163	2.70000	0.00098	0.83714	0.17005	0.21749	0.71220	0.17388	0.23485	0.93714	0.39687
164	2.71667	0.00088	0.83690	0.16865	0.21777	0.71262	0.17257	0.23317	0.93513	0.39812
165	2.73333	0.00079	0.83676	0.16753	0.21794	0.71295	0.17155	0.23241	0.93549	0.39713
166	2.75000	0.00027	0.83672	0.16651	0.21666	0.71152	0.16875	0.23006	0.94215	0.38613
167	2.76667	-0.00022	0.83670	0.16626	0.21579	0.71083	0.16544	0.22973	0.94263	0.38154
168	2.78333	-0.00041	0.83661	0.16650	0.21544	0.71048	0.16483	0.22925	0.93910	0.38429
169	2.80000	-0.00048	0.83659	0.16512	0.21541	0.71065	0.17076	0.22408	0.93143	0.39836
170	2.81667	-0.00067	0.83656	0.16411	0.21524	0.71085	0.17320	0.22171	0.93196	0.40055
171	2.83333	-0.00107	0.83650	0.16416	0.21516	0.71139	0.17378	0.22118	0.93425	0.39944
172	2.85000	-0.00149	0.83645	0.16210	0.21462	0.71175	0.17773	0.21751	0.93196	0.40603
173	2.86667	-0.00174	0.83640	0.16193	0.21410	0.71170	0.18093	0.21586	0.93086	0.41024
174	2.88333	-0.00209	0.83631	0.16172	0.21409	0.71227	0.18119	0.21526	0.93261	0.40939
175	2.90000	-0.00208	0.83627	0.15938	0.21208	0.70994	0.18537	0.20995	0.92865	0.41512
176	2.91667	-0.00208	0.83621	0.15940	0.21109	0.70861	0.18730	0.20736	0.92745	0.41691
177	2.93333	-0.00208	0.83618	0.15943	0.21008	0.70806	0.19223	0.20561	0.92658	0.42213
178	2.95000	-0.00209	0.83617	0.16023	0.20976	0.70804	0.19493	0.20470	0.92663	0.42474
179	2.96667	-0.00210	0.83615	0.16034	0.20944	0.70881	0.19949	0.20086	0.92172	0.43447
180	2.98333	-0.00226	0.83613	0.15950	0.20929	0.70907	0.19955	0.19153	0.92202	0.43399
181	3.00000	-0.00239	0.83611	0.15903	0.20918	0.70925	0.19959	0.18860	0.92137	0.43454
182	3.01667	-0.00247	0.83606	0.15914	0.20861	0.70970	0.20363	0.18698	0.91836	0.44157
183	3.03333	-0.00250	0.83606	0.15923	0.20805	0.71017	0.20740	0.18620	0.91635	0.44748
184	3.05000	-0.00249	0.83604	0.15931	0.20815	0.71039	0.20772	0.18258	0.91689	0.44714
185	3.06667	-0.00244	0.83603	0.15770	0.20921	0.70952	0.19893	0.18304	0.91400	0.44003
186	3.08333	-0.00220	0.83599	0.15517	0.21116	0.70727	0.17533	0.17725	0.92711	0.40148
187	3.10000	-0.00194	0.83598	0.15536	0.21062	0.70625	0.17742	0.17421	0.92685	0.40243
188	3.11667	-0.00166	0.83596	0.15815	0.21074	0.70434	0.16572	0.17146	0.93692	0.37781
189	3.13333	-0.00142	0.83595	0.15871	0.21044	0.70323	0.15708	0.17017	0.93947	0.36490
190	3.15000	-0.00129	0.83594	0.15570	0.21027	0.70304	0.16471	0.17260	0.91671	0.39612
191	3.16667	-0.00099	0.83594	0.15392	0.20999	0.70266	0.16896	0.17137	0.91622	0.40031
192	3.18333	-0.00088	0.83594	0.15420	0.20986	0.70229	0.16931	0.17056	0.91726	0.39923
193	3.20000	-0.00060	0.83593	0.15355	0.20746	0.70319	0.19346	0.16914	0.89347	0.44436
194	3.21667	-0.00034	0.83593	0.15146	0.20664	0.70326	0.19683	0.16625	0.89378	0.44722
195	3.23333	-0.00022	0.83593	0.15112	0.20463	0.70426	0.20771	0.16471	0.88837	0.46292
196	3.25000	-0.00011	0.83582	0.15133	0.20371	0.70433	0.21187	0.16287	0.88712	0.46788
197	3.26667	-0.00008	0.83577	0.15696	0.20634	0.70204	0.20174	0.16221	0.89384	0.45051
198	3.28333	-0.00009	0.83573	0.15641	0.20624	0.70180	0.20106	0.16193	0.89362	0.44979
199	3.30000	0.00002	0.83568	0.16688	0.20852	0.69976	0.19045	0.16100	0.89648	0.43472
200	3.31667	0.00009	0.83561	0.17141	0.20943	0.69896	0.17077	0.15438	0.92158	0.38993
201	3.33333	0.00014	0.83559	0.17315	0.20825	0.69958	0.14687	0.14884	0.93734	0.34827
202	3.35000	0.00014	0.83558	0.17221	0.20851	0.69940	0.14901	0.15124	0.92680	0.36263
203	3.36667	0.00009	0.83555	0.17519	0.20804	0.70008	0.14513	0.15091	0.92128	0.36519
204	3.38333	-0.00004	0.83543	0.17547	0.20905	0.70005	0.15419	0.15114	0.91791	0.37735
205	3.40000	-0.00026	0.83533	0.17647	0.20890	0.70088	0.15051	0.14597	0.92989	0.36079
206	3.41667	-0.00037	0.83515	0.17602	0.20970	0.70171	0.15233	0.14701	0.92434	0.36942
207	3.43333	-0.00045	0.83505	0.17558	0.21068	0.70198	0.16082	0.14966	0.91640	0.38648
208	3.45000	-0.00048	0.83494	0.16404	0.20821	0.70370	0.20557	0.15653	0.88511	0.46060
209	3.46667	-0.00050	0.83490	0.16481	0.20910	0.70318	0.19972	0.15389	0.89677	0.44486
210	3.48333	-0.00052	0.83485	0.16899	0.21121	0.70195	0.16704	0.14713	0.92616	0.38208
211	3.50000	-0.00053	0.83477	0.16360	0.21103	0.70217	0.17621	0.15148	0.91043	0.40794
212	3.51667	-0.00052	0.83466	0.15729	0.20791	0.70424	0.20257	0.15642	0.88433	0.45858
213	3.53333	-0.00051	0.83455	0.15628	0.20701	0.70493	0.20760	0.15576	0.88425	0.46419
214	3.55000	-0.00047	0.83447	0.15452	0.20635	0.70527	0.20961	0.15344	0.89065	0.46151
215	3.56667	-0.00041	0.83442	0.15583	0.20645	0.70514	0.21055	0.15453	0.88716	0.46510
216	3.58333	-0.00034	0.83439	0.15665	0.20601	0.70529	0.21368	0.15461	0.88578	0.46942
217	3.60000	-0.00026	0.83437	0.15709	0.20584	0.70520	0.21484	0.15423	0.88665	0.46986
218	3.61667	-0.00021	0.83436	0.16235	0.20874	0.70311	0.20251	0.15334	0.89861	0.44609
219	3.63333	-0.00016	0.83438	0.16610	0.21093	0.70146	0.18273	0.15209	0.90971	0.41467
220	3.65000	-0.00011	0.83438	0.16797	0.21119	0.70097	0.17543	0.15229	0.90994	0.40670
221	3.66667	0.00000	0.83438	0.16782	0.21109	0.70048	0.17140	0.15263	0.90854	0.40359
222	3.68333	0.00003	0.83437	0.16742	0.21097	0.70019	0.16658	0.15275	0.90814	0.39893
223	3.70000	0.00006	0.83436	0.16858	0.21072	0.69982	0.16398	0.15235	0.90933	0.39490
224	3.71667	0.00014	0.83433	0.16926	0.21057	0.69956	0.16197	0.15202	0.91051	0.39152
225	3.73333	0.00016	0.83432	0.17003	0.21040	0.69939	0.16049	0.15198	0.91092	0.38954
226	3.75000	0.00019	0.83432	0.17030	0.21021	0.69933	0.15717	0.15120	0.91367	0.38344
227	3.76667	0.00026	0.83430	0.17052	0.21010	0.69913	0.15647	0.15232	0.91202	0.38442
228	3.78333	0.00040	0.83424	0.17033	0.21004	0.69866	0.15739	0.15294	0.91280	0.38433
229	3.80000	0.00052	0.83421	0.17028	0.21003	0.69832	0.15852	0.15425	0.91177	0.38644
230	3.81667	0.00055	0.83418	0.16023	0.20942	0.69854	0.18206	0.15970	0.89173	0.42869
231	3.83333	0.00059	0.83416	0.16061	0.20964	0.69825	0.17874	0.15804	0.90097	0.41720
232	3.85000	0.00060	0.83416	0.15955	0.20370	0.70178	0.22058	0.15998	0.87944	0.47970
233	3.86667	0.00060	0.83415	0.15777	0.20188	0.70290	0.22677	0.15922	0.88155	0.48540
234	3.88333	0.00057	0.83414	0.15544	0.20188	0.70291	0.22438	0.16127	0.88696	0.47952
235	3.90000	0.00055	0.83414	0.15411	0.20164	0.70317	0.22419	0.16267	0.88830	0.47881
236	3.91667	0.00055	0.83413	0.15139	0.20159	0.70324	0.22175	0.16294	0.89420	0.47208
237	3.93333	0.00055	0.83410	0.14944	0.20326	0.70241	0.21320	0.16539	0.89302	0.46391
238	3.95000	0.00054	0.83409	0.14920	0.20900	0.69878	0.17632	0.16759	0.91556	0.40416
239	3.96667	0.00058	0.83407	0.15705	0.21035	0.69812	0.15337	0.16585	0.93644	0.35792
240	3.98333	0.00062	0.83405	0.15981	0.21002	0.69849	0.14333	0.16519	0.94070	0.34318
241	4.00000	0.00043	0.83405	0.15686	0.20961	0.70277	0.19572	0.17696	0.90398	0.43876
242	4.01667	0.00043	0.83404	0.15685	0.20985	0.70479	0.20085	0.17911	0.90831	0.44221
243	4.03333	0.00043	0.83404	0.15944	0.20778	0.70698	0.21742	0.17737	0.91115	0.45828
244	4.05000	0.00043	0.83404	0.15978	0.20916	0.70620	0.21064	0.18170	0.91582	0.44714
245	4.06667	0.00043	0.83401	0.15971	0.21109	0.70565	0.20025	0.18392	0.92484	0.42793
246	4.08333	0.00044	0.83395	0.16291	0.21336	0.70451	0.18324	0.18610	0.93382	0.40072
247	4.10000	0.00046	0.83366	0.16251	0.21383	0.70580	0.18747	0.19900	0.92896	0.41241
248	4.11667	0.00052	0.83346	0.16241	0.21421	0.70659	0.18964	0.20261	0.92608	0.41835
249	4.13333	0.00058	0.83330	0.16092	0.21428	0.70732	0.19197	0.20347	0.92600	0.42150
250	4.15000	0.00071	0.83325	0.15805	0.21488	0.70748	0.18657	0.20408	0.92678	0.41550
251	4.16667	0.00056	0.83325	0.15583	0.21502	0.70749	0.18212	0.21002	0.92509	0.41287
252	4.18333	0.00056	0.83323	0.15473	0.21650	0.70726	0.15563	0.22081	0.93390	0.37752
253	4.20000	0.00059	0.83311	0.15186	0.21695	0.70789	0.14906	0.22353	0.93462	0.37081
254	4.21667	0.00067	0.83306	0.15233	0.21721	0.70817	0.15587	0.22495	0.93268	0.37983
255	4.23333	0.00085	0.83290	0.15241	0.21737	0.70818	0.16023	0.22579	0.93205	0.38480
256	4.25000	0.00094	0.83270	0.15153	0.21843	0.71000	0.16345	0.23055	0.93369	0.38803
257	4.26667	0.00095	0.83236	0.15043	0.21974	0.71153	0.15586	0.23403	0.94013	0.37531
258	4.28333	0.00098	0.83236	0.14570	0.22146	0.71488	0.13630	0.24893	0.95625	0.34027
259	4.30000	0.00099	0.83235	0.14372	0.22205	0.71630	0.13087	0.25204	0.96022	0.33144
260	4.31667	0.00102	0.83235	0.14386	0.22090	0.71978	0.10537	0.25270	0.97445	0.29179
261	4.33333	0.00104	0.83235	0.14413	0.22212	0.72049	0.11080	0.25375	0.96819	0.30642
262	4.35000	0.00112	0.83241	0.15180	0.22073	0.72079	0.10927	0.25586	0.96163	0.31270
263	4.36667	0.00113	0.83244	0.15052	0.22117	0.72047	0.11121	0.25815	0.95940	0.31656
264	4.38333	0.00117	0.83244	0.14964	0.21890	0.72136	0.09712	0.25814	0.97009	0.29004
265	4.40000	0.00113	0.83247	0.14972	0.21831	0.72166	0.09446	0.26981	0.98048	0.27048
266	4.41667	0.00112	0.83248	0.15135	0.21321	0.72522	0.07381	0.27109	0.99956	0.22218
267	4.43333	0.00092	0.83251	0.14929	0.21091	0.72801	0.06280	0.27241	1.00617	0.20232
268	4.45000	0.00092	0.83251	0.14956	0.20774	0.73261	0.05084	0.27683	1.01724	0.17263
269	4.46667	0.00092	0.83251	0.14912	0.20816	0.73452	0.04937	0.27921	1.01564	0.17800
270	4.48333	0.00092	0.83253	0.14865	0.20816	0.73612	0.04735	0.28008	1.01889	0.17183
271	4.50000	0.00087	0.83257	0.14838	0.21127	0.73455	0.05552	0.29123	1.00927	0.19248
272	4.51667	0.00082	0.83262	0.14840	0.21292	0.73458	0.05951	0.29620	1.00725	0.19856
273	4.53333	0.00081	0.83269	0.14878	0.21408	0.73385	0.06365	0.29890	1.00693	0.20095
274	4.55000	0.00067	0.83281	0.14876	0.21324	0.73430	0.06153	0.29912	1.00886	0.19518
275	4.56667	0.00018	0.83310	0.14951	0.21337	0.73571	0.06252	0.30302	1.00645	0.20139
276	4.58333	-0.00005	0.83337	0.15208	0.21046	0.73586	0.05893	0.31781	1.00085	0.19632
277	4.60000	-0.00011	0.83367	0.15530	0.20770	0.73657	0.05588	0.32083	0.99842	0.19465
278	4.61667	-0.00014	0.83375	0.15306	0.20698	0.73684	0.05200	0.32181	0.99587	0.19462
279	4.63333	-0.00016	0.83377	0.15306	0.20698	0.73678	0.05212	0.32347	0.99464	0.19551
280	4.65000	-0.00048	0.83377	0.14070	0.20119	0.74224	0.02472	0.33004	1.01716	0.11658
281	4.66667	-0.00060	0.83373	0.13912	0.20259	0.74517	0.02350	0.33461	1.02075	0.10866
282	4.68333	-0.00061	0.83369	0.13945	0.20894	0.75597	0.02743	0.35594	1.02223	0.11753
283	4.70000	-0.00074	0.83365	0.13632	0.20972	0.75943	0.02362	0.36061	1.02495	0.10936
284	4.71667	-0.00078	0.83364	0.13498	0.21023	0.76366	0.02061	0.36402	1.02853	0.10321
285	4.73333	-0.00099	0.83363	0.13166	0.20732	0.76753	0.01026	0.36505	1.03519	0.07429
286	4.75000	-0.00131	0.83374	0.13268	0.20325	0.77018	0.00379	0.36979	1.03564	0.05297
287	4.76667	-0.00167	0.83377	0.13279	0.20231	0.77197	0.00214	0.37363	1.03485	0.04866
288	4.78333	-0.00181	0.83378	0.13292	0.20244	0.77278	0.00229	0.37675	1.03332	0.05077
289	4.80000	-0.00186	0.83414	0.15646	0.21162	0.77655	0.03979	0.40091	1.00538	0.15127
290	4.81667	-0.00192	0.83438	0.15600	0.21194	0.77987	0.03856	0.41226	1.00091	0.14642
291	4.83333	-0.00211	0.83464	0.15186	0.20606	0.78320	0.02333	0.42005	1.00864	0.08662
292	4.85000	-0.00236	0.83482	0.15166	0.20421	0.78439	0.02017	0.42540	1.00207	0.08586
293	4.86667	-0.00264	0.83507	0.15148	0.20231	0.78576	0.01708	0.42894	0.99990	0.07544
294	4.88333	-0.00264	0.83525	0.15236	0.20583	0.78594	0.02348	0.43285	0.99577	0.09458
295	4.90000	-0.00262	0.83546	0.16069	0.21146	0.78437	0.04211	0.43933	0.97549	0.15245
296	4.91667	-0.00258	0.83556	0.16099	0.21116	0.78431	0.04185	0.44149	0.96905	0.15777
297	4.93333	-0.00252	0.83559	0.15887	0.21093	0.78433	0.03924	0.44158	0.96571	0.15975
298	4.95000	-0.00253	0.83569	0.16038	0.21271	0.78417	0.04411	0.44643	0.95882	0.16859
